<svg width="750" height="214" viewBox="0 0 750 214" fill="none" xmlns="http://www.w3.org/2000/svg">
<circle cx="643" cy="107" r="107" fill="#FFCE07"/>
<path d="M23.8597 69.7097H43.3917L55.2813 119.275H56.1591L85.528 69.7097H105.06L92.0522 143.481H76.69L85.1565 95.4647H84.5347L56.746 143.121H46.2851L35.3342 95.2846H34.7124L26.2141 143.481H10.8519L23.8597 69.7097ZM130.002 144.561C124.32 144.561 119.617 143.373 115.89 140.995C112.193 138.594 109.599 135.256 108.11 130.981C106.624 126.683 106.381 121.7 107.38 116.033C108.388 110.317 110.391 105.323 113.388 101.048C116.389 96.7495 120.16 93.4116 124.7 91.0342C129.269 88.6328 134.394 87.4321 140.075 87.4321C145.757 87.4321 150.447 88.6328 154.144 91.0342C157.87 93.4116 160.476 96.7495 161.962 101.048C163.451 105.323 163.692 110.317 162.684 116.033C161.685 121.7 159.685 126.683 156.683 130.981C153.686 135.256 149.903 138.594 145.335 140.995C140.794 143.373 135.684 144.561 130.002 144.561ZM132.171 132.674C134.756 132.674 137.041 131.954 139.026 130.513C141.016 129.048 142.672 127.055 143.994 124.534C145.341 122.012 146.298 119.143 146.866 115.925C147.433 112.707 147.488 109.837 147.03 107.316C146.597 104.794 145.644 102.801 144.171 101.336C142.698 99.8713 140.669 99.1389 138.084 99.1389C135.475 99.1389 133.151 99.8713 131.113 101.336C129.099 102.801 127.419 104.794 126.072 107.316C124.749 109.837 123.805 112.707 123.237 115.925C122.67 119.143 122.603 122.012 123.036 124.534C123.494 127.055 124.471 129.048 125.968 130.513C127.494 131.954 129.562 132.674 132.171 132.674ZM228.299 88.1525L198.902 143.481H181.345L171.459 88.1525H187.919L192.606 127.74H193.192L211.803 88.1525H228.299ZM226.517 143.481L236.273 88.1525H251.855L242.099 143.481H226.517ZM245.358 81.0203C243.042 81.0203 241.188 80.2639 239.796 78.751C238.434 77.2141 237.941 75.377 238.317 73.2398C238.69 71.1265 239.827 69.3135 241.727 67.8006C243.656 66.2637 245.779 65.4953 248.096 65.4953C250.412 65.4953 252.252 66.2637 253.615 67.8006C255.006 69.3135 255.515 71.1265 255.143 73.2398C254.766 75.377 253.613 77.2141 251.684 78.751C249.783 80.2639 247.675 81.0203 245.358 81.0203ZM275.803 111.494L270.162 143.481H254.581L264.337 88.1525H279.187L277.466 97.9142H278.124C279.935 94.6963 282.469 92.1508 285.725 90.2777C288.986 88.3806 292.701 87.4321 296.871 87.4321C300.772 87.4321 304.026 88.2726 306.631 89.9535C309.236 91.6345 311.068 94.0359 312.127 97.1577C313.19 100.256 313.343 103.954 312.585 108.252L306.373 143.481H290.792L296.521 110.99C297.142 107.604 296.73 104.962 295.285 103.065C293.843 101.144 291.562 100.184 288.441 100.184C286.344 100.184 284.412 100.628 282.646 101.516C280.904 102.405 279.432 103.702 278.229 105.407C277.055 107.088 276.246 109.117 275.803 111.494ZM340.103 165.382C335.056 165.382 330.848 164.697 327.481 163.328C324.133 161.984 321.604 160.146 319.894 157.817C318.183 155.488 317.267 152.87 317.145 149.965L331.893 148.055C332.137 149.16 332.65 150.193 333.431 151.153C334.213 152.114 335.333 152.882 336.792 153.459C338.272 154.059 340.145 154.359 342.413 154.359C345.802 154.359 348.738 153.543 351.221 151.91C353.723 150.301 355.309 147.599 355.978 143.805L357.763 133.683H357.105C356.151 135.22 354.871 136.673 353.264 138.042C351.657 139.41 349.704 140.527 347.406 141.392C345.108 142.256 342.471 142.688 339.496 142.688C335.278 142.688 331.606 141.728 328.483 139.807C325.387 137.861 323.167 134.896 321.822 130.909C320.505 126.899 320.386 121.832 321.466 115.709C322.571 109.441 324.531 104.206 327.344 100.003C330.158 95.8009 333.468 92.6551 337.275 90.5659C341.106 88.4767 345.082 87.4321 349.203 87.4321C352.348 87.4321 354.889 87.9604 356.824 89.017C358.763 90.0496 360.241 91.3463 361.259 92.9073C362.304 94.4442 363.05 95.957 363.494 97.4459H364.079L365.718 88.1525H381.19L371.339 144.021C370.509 148.728 368.644 152.666 365.744 155.836C362.844 159.006 359.182 161.383 354.757 162.968C350.353 164.577 345.468 165.382 340.103 165.382ZM346.466 131.162C348.978 131.162 351.208 130.549 353.155 129.325C355.131 128.076 356.785 126.299 358.118 123.993C359.48 121.664 360.447 118.878 361.018 115.637C361.59 112.395 361.622 109.585 361.115 107.208C360.611 104.806 359.598 102.945 358.076 101.624C356.553 100.304 354.536 99.6432 352.024 99.6432C349.464 99.6432 347.185 100.328 345.188 101.696C343.195 103.041 341.536 104.914 340.21 107.316C338.885 109.717 337.944 112.491 337.39 115.637C336.827 118.83 336.791 121.592 337.282 123.921C337.802 126.227 338.816 128.016 340.323 129.288C341.858 130.537 343.906 131.162 346.466 131.162ZM423.509 144.525C419.924 144.525 416.838 143.913 414.25 142.688C411.666 141.44 409.771 139.603 408.565 137.177C407.387 134.728 407.12 131.678 407.764 128.028C408.306 124.954 409.334 122.372 410.848 120.283C412.363 118.194 414.22 116.513 416.42 115.24C418.619 113.968 421.032 113.007 423.658 112.359C426.308 111.71 429.046 111.254 431.873 110.99C435.2 110.654 437.888 110.341 439.939 110.053C441.993 109.741 443.524 109.285 444.533 108.684C445.541 108.084 446.148 107.196 446.356 106.019L446.394 105.803C446.796 103.521 446.376 101.756 445.133 100.508C443.915 99.259 441.976 98.6346 439.318 98.6346C436.514 98.6346 434.175 99.247 432.301 100.472C430.431 101.672 429.067 103.185 428.209 105.01L414.001 103.858C415.325 100.496 417.276 97.59 419.854 95.1406C422.436 92.6671 425.538 90.77 429.16 89.4492C432.811 88.1045 436.88 87.4321 441.367 87.4321C444.488 87.4321 447.412 87.7923 450.138 88.5127C452.888 89.2331 455.239 90.3498 457.191 91.8626C459.168 93.3755 460.593 95.3207 461.466 97.6981C462.344 100.051 462.492 102.873 461.912 106.163L455.332 143.481H440.555L441.908 135.808H441.469C440.262 137.537 438.786 139.062 437.041 140.383C435.301 141.68 433.304 142.7 431.051 143.445C428.803 144.165 426.289 144.525 423.509 144.525ZM429.839 133.935C432.131 133.935 434.233 133.491 436.145 132.602C438.062 131.69 439.656 130.465 440.926 128.928C442.197 127.391 443.004 125.65 443.347 123.705L444.382 117.834C443.84 118.146 443.118 118.434 442.218 118.698C441.347 118.938 440.368 119.167 439.281 119.383C438.199 119.575 437.118 119.755 436.04 119.923C434.966 120.067 433.992 120.199 433.117 120.319C431.242 120.583 429.571 121.004 428.104 121.58C426.636 122.156 425.438 122.937 424.508 123.921C423.583 124.882 422.994 126.083 422.739 127.523C422.371 129.613 422.858 131.21 424.199 132.314C425.569 133.395 427.449 133.935 429.839 133.935ZM521.14 103.93L506.722 104.794C506.69 103.593 506.356 102.513 505.721 101.552C505.09 100.568 504.167 99.7873 502.952 99.2109C501.765 98.6106 500.27 98.3104 498.465 98.3104C496.051 98.3104 493.926 98.8147 492.09 99.8233C490.258 100.808 489.196 102.129 488.904 103.786C488.671 105.106 489.011 106.223 489.923 107.136C490.835 108.048 492.547 108.781 495.059 109.333L504.871 111.35C510.139 112.455 513.897 114.232 516.148 116.681C518.398 119.131 519.172 122.348 518.469 126.335C517.83 129.961 516.184 133.143 513.531 135.88C510.902 138.618 507.575 140.755 503.549 142.292C499.551 143.805 495.114 144.561 490.237 144.561C482.8 144.561 477.143 143.037 473.267 139.987C469.42 136.913 467.584 132.735 467.76 127.451L483.225 126.659C483.295 128.892 484.116 130.597 485.688 131.774C487.265 132.927 489.443 133.503 492.223 133.503C494.954 133.503 497.24 132.987 499.08 131.954C500.949 130.897 502.042 129.541 502.358 127.884C502.58 126.491 502.183 125.35 501.169 124.462C500.16 123.549 498.478 122.853 496.124 122.372L486.732 120.463C481.436 119.383 477.682 117.51 475.469 114.844C473.281 112.179 472.552 108.781 473.28 104.65C473.907 101.096 475.422 98.0342 477.826 95.4647C480.254 92.8953 483.371 90.9141 487.177 89.5213C491.007 88.1285 495.324 87.4321 500.127 87.4321C507.223 87.4321 512.547 88.9089 516.098 91.8626C519.674 94.8164 521.354 98.8387 521.14 103.93ZM574.29 144.561C568.608 144.561 563.905 143.373 560.178 140.995C556.481 138.594 553.887 135.256 552.398 130.981C550.912 126.683 550.669 121.7 551.668 116.033C552.676 110.317 554.679 105.323 557.676 101.048C560.677 96.7495 564.448 93.4116 568.988 91.0342C573.557 88.6328 578.682 87.4321 584.364 87.4321C590.045 87.4321 594.735 88.6328 598.432 91.0342C602.158 93.4116 604.764 96.7495 606.25 101.048C607.739 105.323 607.98 110.317 606.972 116.033C605.973 121.7 603.973 126.683 600.972 130.981C597.974 135.256 594.192 138.594 589.623 140.995C585.083 143.373 579.972 144.561 574.29 144.561ZM576.459 132.674C579.044 132.674 581.329 131.954 583.314 130.513C585.304 129.048 586.96 127.055 588.282 124.534C589.629 122.012 590.586 119.143 591.154 115.925C591.721 112.707 591.776 109.837 591.318 107.316C590.885 104.794 589.932 102.801 588.459 101.336C586.986 99.8713 584.957 99.1389 582.372 99.1389C579.763 99.1389 577.44 99.8713 575.401 101.336C573.387 102.801 571.707 104.794 570.36 107.316C569.038 109.837 568.093 112.707 567.525 115.925C566.958 119.143 566.891 122.012 567.324 124.534C567.782 127.055 568.759 129.048 570.257 130.513C571.783 131.954 573.85 132.674 576.459 132.674ZM633.486 111.494L627.846 143.481H612.264L622.02 88.1525H636.87L635.149 97.9142H635.807C637.619 94.6963 640.152 92.1508 643.409 90.2777C646.669 88.3806 650.384 87.4321 654.554 87.4321C658.456 87.4321 661.709 88.2726 664.315 89.9535C666.92 91.6345 668.752 94.0359 669.811 97.1577C670.874 100.256 671.027 103.954 670.269 108.252L664.057 143.481H648.475L654.204 110.99C654.826 107.604 654.414 104.962 652.968 103.065C651.527 101.144 649.246 100.184 646.124 100.184C644.027 100.184 642.096 100.628 640.33 101.516C638.588 102.405 637.116 103.702 635.913 105.407C634.739 107.088 633.93 109.117 633.486 111.494ZM701.751 144.561C695.972 144.561 691.2 143.409 687.437 141.103C683.703 138.774 681.088 135.484 679.594 131.234C678.105 126.959 677.874 121.904 678.903 116.069C679.907 110.377 681.909 105.383 684.911 101.084C687.912 96.7855 691.66 93.4356 696.156 91.0342C700.676 88.6328 705.691 87.4321 711.202 87.4321C714.909 87.4321 718.255 88.0204 721.242 89.1971C724.258 90.3498 726.755 92.0908 728.734 94.4201C730.737 96.7495 732.098 99.6792 732.817 103.209C733.54 106.715 733.487 110.822 732.657 115.528L731.913 119.743H684.474L686.15 110.233H718.923C719.313 108.024 719.17 106.067 718.495 104.362C717.821 102.657 716.702 101.324 715.14 100.364C713.607 99.379 711.706 98.8867 709.439 98.8867C707.073 98.8867 704.881 99.4271 702.862 100.508C700.871 101.564 699.205 102.993 697.863 104.794C696.525 106.571 695.652 108.552 695.242 110.738L693.648 119.779C693.165 122.517 693.26 124.882 693.933 126.875C694.63 128.868 695.834 130.405 697.546 131.486C699.257 132.566 701.417 133.107 704.027 133.107C705.758 133.107 707.385 132.867 708.909 132.386C710.432 131.906 711.79 131.186 712.984 130.225C714.177 129.264 715.165 128.088 715.947 126.695L730.193 127.632C728.861 131.042 726.836 134.019 724.119 136.565C721.431 139.086 718.182 141.055 714.372 142.472C710.591 143.865 706.384 144.561 701.751 144.561Z" fill="black"/>
</svg>
